<svg width="60" height="60" viewBox="0 0 60 60" fill="none" xmlns="http://www.w3.org/2000/svg">
<g clip-path="url(#clip0_7009_9106)">
<path fill-rule="evenodd" clip-rule="evenodd" d="M51.0117 8.71887C45.3992 3.09922 37.9347 0.00285117 29.9814 0C13.593 0 0.255179 13.3364 0.249477 29.7291C0.246626 34.9695 1.61661 40.0845 4.21831 44.5923L0 60L15.7613 55.8658C20.1036 58.2352 24.9933 59.4825 29.9686 59.484H29.9814C46.3671 59.484 59.7064 46.1461 59.7121 29.7534C59.7149 21.8087 56.6256 14.34 51.0117 8.7203V8.71887ZM29.9814 54.463H29.9715C25.5378 54.4617 21.1885 53.2698 17.3936 51.0188L16.4912 50.4829L7.13791 52.9362L9.63411 43.8167L9.04676 42.8815C6.57337 38.947 5.26611 34.3993 5.26896 29.7306C5.27466 16.1063 16.36 5.0209 29.9915 5.0209C36.5919 5.02376 42.7961 7.59695 47.462 12.2686C52.128 16.9388 54.6954 23.1487 54.6926 29.7505C54.6868 43.3763 43.6016 54.4617 29.9814 54.4617V54.463ZM43.5359 35.9561C42.7931 35.5841 39.1409 33.7877 38.4594 33.5398C37.778 33.2916 37.2834 33.1677 36.7886 33.9118C36.294 34.656 34.8698 36.3296 34.4364 36.8243C34.003 37.3204 33.5696 37.3817 32.8269 37.0095C32.0843 36.6375 29.6907 35.8534 26.8523 33.323C24.6442 31.3528 23.1529 28.9209 22.7196 28.1766C22.2862 27.4325 22.674 27.0305 23.0445 26.6613C23.3781 26.3277 23.7873 25.7931 24.1593 25.3597C24.5315 24.9263 24.6541 24.6156 24.9021 24.1209C25.1502 23.6247 25.0262 23.1915 24.8409 22.8193C24.6554 22.4473 23.1701 18.7906 22.5499 17.3037C21.9468 15.8554 21.334 16.0521 20.8791 16.0279C20.4457 16.0065 19.9511 16.0022 19.455 16.0022C18.9589 16.0022 18.1548 16.1875 17.4734 16.9317C16.792 17.6758 14.8731 19.4734 14.8731 23.1286C14.8731 26.7838 17.5348 30.318 17.9068 30.8141C18.2789 31.3102 23.1457 38.813 30.5973 42.032C32.3694 42.7975 33.7536 43.2551 34.8327 43.5973C36.6119 44.1632 38.2313 44.0834 39.5115 43.8923C40.9386 43.6785 43.9066 42.0947 44.5253 40.3597C45.144 38.6247 45.144 37.1364 44.9587 36.8271C44.7734 36.5177 44.2773 36.331 43.5346 35.9589L43.5359 35.9561Z" fill="#25D366" style="fill:#25D366;fill:color(display-p3 0.1451 0.8275 0.4000);fill-opacity:1;"/>
</g>
<defs>
<clipPath id="clip0_7009_9106">
<rect width="60" height="60" fill="white" style="fill:white;fill-opacity:1;"/>
</clipPath>
</defs>
</svg>
