<svg width="60" height="60" viewBox="0 0 60 60" fill="none" xmlns="http://www.w3.org/2000/svg">
<g clip-path="url(#clip0_7009_9113)">
<path d="M29.9805 0C32.4998 0.00237551 34.9703 0.316656 37.3467 0.918945V6.13379C34.9936 5.40257 32.5204 5.01758 29.9893 5.01758C16.3588 5.01769 5.27346 16.1031 5.26855 29.7266C5.26621 34.3951 6.57433 38.942 9.04688 42.877L9.63477 43.8125L7.13867 52.9316L16.4922 50.4775L17.3945 51.0146C21.1911 53.2668 25.5386 54.4599 29.9727 54.46H29.9824C43.6014 54.46 54.6867 43.376 54.6914 29.75C54.6914 27.3596 54.3517 25.0185 53.7002 22.7852H58.8916L58.8887 22.7871C59.4277 25.0416 59.709 27.3761 59.709 29.7549C59.7043 46.1463 46.3648 59.4842 29.9805 59.4844H29.9688C24.9932 59.482 20.1035 58.2356 15.7607 55.8662L0 60L4.21582 44.5928C1.61446 40.0837 0.245735 34.9698 0.248047 29.7295C0.255078 13.3379 13.5936 0.00234366 29.9805 0ZM19.4521 16.0059C19.9488 16.0059 20.4435 16.0112 20.877 16.0322C21.3316 16.0557 21.9465 15.8583 22.5488 17.3066C23.1699 18.7925 24.6556 22.4486 24.8408 22.8213C25.026 23.1916 25.1498 23.6252 24.9014 24.1221C24.6529 24.6189 24.5308 24.9287 24.1582 25.3623C23.7856 25.7958 23.3757 26.3304 23.043 26.6631C22.6728 27.0333 22.2837 27.4362 22.7168 28.1787C23.1504 28.924 24.6409 31.3552 26.8486 33.3262C29.6868 35.8573 32.0803 36.6401 32.8232 37.0127C33.566 37.3852 34.0001 37.3239 34.4336 36.8271C34.8674 36.3324 36.2917 34.6593 36.7861 33.9141L36.7812 33.9189C37.2757 33.1738 37.7703 33.2976 38.4521 33.5459C39.1342 33.7943 42.7864 35.5899 43.5293 35.9648C44.272 36.335 44.769 36.5227 44.9541 36.832C45.1391 37.1419 45.1389 38.6297 44.5205 40.3633C43.9018 42.0976 40.9341 43.6822 39.5068 43.8955C38.2272 44.0853 36.6078 44.1654 34.8291 43.6006C33.751 43.2584 32.3655 42.8015 30.5938 42.0352C23.1422 38.8177 18.2773 31.3173 17.9033 30.8184C17.533 30.3215 14.8711 26.7889 14.8711 23.1328C14.8712 19.4769 16.7877 17.6794 17.4697 16.9365C18.1516 16.1914 18.9553 16.0059 19.4521 16.0059ZM51.8369 0.803711V8.01953H58.791V13.042H51.8369V20.2588H46.8174V13.042H39.8633V8.01953H46.8174V0.803711H51.8369Z" fill="#25D366" style="fill:#25D366;fill:color(display-p3 0.1451 0.8275 0.4000);fill-opacity:1;"/>
</g>
<defs>
<clipPath id="clip0_7009_9113">
<rect width="60" height="60" fill="white" style="fill:white;fill-opacity:1;"/>
</clipPath>
</defs>
</svg>
